# xmcd
#
# Track frame offsets: 
#        150
#        26556
#        51554
#        69509
#        88089
#        117334
#        136446
#        162732
#        186848
#        206851
#
# Disc length: 3145 seconds
#
# Revision: 0
# Processed by: cddbd v1.5.2PL0 Copyright (c) Steve Scherf et al.
# Submitted via: ExactAudioCopy v1.0b3
#
DISCID=9c0c470a
DTITLE=Krupka Blues Band - Live in Horrenberg
DYEAR=2009
DGENRE=Blues
TTITLE0=I'm Ready
TTITLE1=Ako Se Byah Rodil
TTITLE2=Big Boss Man
TTITLE3=Minnie The Moocher
TTITLE4=Blow Wind, Blow
TTITLE5=Nyama Bira
TTITLE6=Blues From The Dark Side Of The Wall
TTITLE7=Boom Boom, Dimples
TTITLE8=Flip Flop and Fly
TTITLE9=Taratayka
EXTD=
EXTT0=
EXTT1=
EXTT2=
EXTT3=
EXTT4=
EXTT5=
EXTT6=
EXTT7=
EXTT8=
EXTT9=
PLAYORDER=
